<svg width="21" height="21" viewBox="0 0 21 21" fill="none" xmlns="http://www.w3.org/2000/svg">
<g id="Group">
<path id="Vector" d="M1 9.33333C1 5.40521 1 3.44062 2.22083 2.22083C3.44167 1.00104 5.40521 1 9.33333 1H11.4167C15.3448 1 17.3094 1 18.5292 2.22083C19.749 3.44167 19.75 5.40521 19.75 9.33333V11.4167C19.75 15.3448 19.75 17.3094 18.5292 18.5292C17.3083 19.749 15.3448 19.75 11.4167 19.75H9.33333C5.40521 19.75 3.44062 19.75 2.22083 18.5292C1.00104 17.3083 1 15.3448 1 11.4167V9.33333Z" stroke="black" stroke-width="2"/>
<path id="Vector_2" d="M15.0625 7.25C15.9254 7.25 16.625 6.55044 16.625 5.6875C16.625 4.82456 15.9254 4.125 15.0625 4.125C14.1996 4.125 13.5 4.82456 13.5 5.6875C13.5 6.55044 14.1996 7.25 15.0625 7.25Z" fill="black"/>
<path id="Vector_3" d="M10.375 13.5C12.1009 13.5 13.5 12.1009 13.5 10.375C13.5 8.64911 12.1009 7.25 10.375 7.25C8.64911 7.25 7.25 8.64911 7.25 10.375C7.25 12.1009 8.64911 13.5 10.375 13.5Z" stroke="black" stroke-width="2"/>
</g>
</svg>
