<svg width="22" height="21" viewBox="0 0 22 21" fill="none" xmlns="http://www.w3.org/2000/svg">
<path id="Vector" d="M10.9365 0C16.9781 0 21.875 3.81667 21.875 8.52604C21.875 13.2344 16.9781 17.051 10.9375 17.051C10.3361 17.05 9.73526 17.0117 9.13854 16.9365L4.54688 19.9396C4.025 20.2156 3.84063 20.1854 4.05521 19.5094L4.98437 15.6781C1.98437 14.1573 0 11.5219 0 8.52604C0 3.81771 4.89583 0 10.9375 0M17.0917 8.39583L18.6229 6.9125C18.7113 6.82074 18.7606 6.69826 18.7604 6.57088C18.7603 6.44349 18.7107 6.32114 18.6221 6.22959C18.5335 6.13804 18.4129 6.08445 18.2856 6.08009C18.1582 6.07574 18.0342 6.12097 17.9396 6.20625L15.9312 8.15V6.54375C15.9312 6.41335 15.8794 6.28829 15.7872 6.19609C15.695 6.10388 15.57 6.05208 15.4396 6.05208C15.3092 6.05208 15.1841 6.10388 15.0919 6.19609C14.9997 6.28829 14.9479 6.41335 14.9479 6.54375V9.20729C14.9306 9.2834 14.9306 9.36243 14.9479 9.43854V10.9375C14.9479 11.0679 14.9997 11.193 15.0919 11.2852C15.1841 11.3774 15.3092 11.4292 15.4396 11.4292C15.57 11.4292 15.695 11.3774 15.7872 11.2852C15.8794 11.193 15.9312 11.0679 15.9312 10.9375V9.51771L16.376 9.0875L17.8635 11.2052C17.9007 11.2581 17.9479 11.3031 18.0024 11.3377C18.057 11.3724 18.1178 11.3959 18.1814 11.4071C18.2451 11.4182 18.3103 11.4167 18.3734 11.4026C18.4364 11.3885 18.4961 11.3621 18.549 11.325C18.6018 11.2879 18.6469 11.2407 18.6815 11.1861C18.7161 11.1316 18.7397 11.0707 18.7508 11.0071C18.7619 10.9435 18.7604 10.8782 18.7463 10.8152C18.7323 10.7521 18.7059 10.6925 18.6688 10.6396L17.0917 8.39583ZM14.0104 10.4H12.4896V6.55937C12.4838 6.43303 12.4295 6.31378 12.338 6.22643C12.2465 6.13908 12.1249 6.09033 11.9984 6.09033C11.872 6.09033 11.7503 6.13908 11.6589 6.22643C11.5674 6.31378 11.5131 6.43303 11.5073 6.55937V10.8917C11.5073 11.1625 11.726 11.3833 11.9979 11.3833H14.0104C14.1408 11.3833 14.2659 11.3315 14.3581 11.2393C14.4503 11.1471 14.5021 11.0221 14.5021 10.8917C14.5021 10.7613 14.4503 10.6362 14.3581 10.544C14.2659 10.4518 14.1408 10.4 14.0104 10.4ZM7.90937 9.26354L8.63437 7.48438L9.29896 9.2625L7.90937 9.26354ZM10.5375 9.77083L10.5396 9.75417C10.5392 9.63032 10.492 9.51121 10.4073 9.42083L9.31771 6.50417C9.27203 6.36518 9.18503 6.24343 9.06832 6.1552C8.95161 6.06697 8.81076 6.01646 8.66458 6.01042C8.51746 6.01035 8.37377 6.05478 8.25237 6.13789C8.13097 6.22099 8.03755 6.33887 7.98438 6.47604L6.25313 10.7208C6.20381 10.8416 6.20448 10.9769 6.25497 11.0972C6.30547 11.2174 6.40167 11.3127 6.5224 11.362C6.64312 11.4113 6.7785 11.4106 6.89874 11.3601C7.01897 11.3096 7.11423 11.2134 7.16354 11.0927L7.50937 10.2458H9.66562L9.97604 11.0792C9.99722 11.1415 10.0307 11.1989 10.0744 11.248C10.1182 11.2971 10.1714 11.3369 10.2308 11.3651C10.2903 11.3933 10.3548 11.4093 10.4205 11.4121C10.4862 11.415 10.5519 11.4045 10.6135 11.3815C10.6751 11.3585 10.7315 11.3234 10.7793 11.2782C10.8271 11.233 10.8654 11.1786 10.8918 11.1184C10.9182 11.0581 10.9323 10.9932 10.9332 10.9274C10.934 10.8616 10.9217 10.7963 10.8969 10.7354L10.5375 9.77083ZM7.07604 6.56458C7.07632 6.50003 7.06382 6.43605 7.03928 6.37635C7.01473 6.31664 6.97862 6.26237 6.93302 6.21668C6.88742 6.17098 6.83323 6.13475 6.77357 6.11008C6.71392 6.08541 6.64997 6.07278 6.58542 6.07292H3.20521C3.07481 6.07292 2.94975 6.12472 2.85755 6.21692C2.76534 6.30913 2.71354 6.43419 2.71354 6.56458C2.71354 6.69498 2.76534 6.82004 2.85755 6.91224C2.94975 7.00445 3.07481 7.05625 3.20521 7.05625H4.41354V10.9479C4.41354 11.0783 4.46534 11.2034 4.55755 11.2956C4.64975 11.3878 4.77481 11.4396 4.90521 11.4396C5.03561 11.4396 5.16066 11.3878 5.25287 11.2956C5.34507 11.2034 5.39687 11.0783 5.39687 10.9479V7.05625H6.58437C6.64902 7.05653 6.71308 7.044 6.77285 7.01939C6.83263 6.99477 6.88694 6.95857 6.93265 6.91286C6.97836 6.86715 7.01457 6.81284 7.03918 6.75306C7.06379 6.69328 7.07632 6.62923 7.07604 6.56458Z" fill="black"/>
</svg>
