<svg width="30" height="30" viewBox="0 0 30 30" fill="none" xmlns="http://www.w3.org/2000/svg">
<g id="material-symbols-light:search-rounded">
<path id="Vector" d="M11.9235 19.0374C9.92518 19.0374 8.23143 18.3432 6.84227 16.9549C5.45393 15.5674 4.75977 13.8741 4.75977 11.8749C4.75977 9.87574 5.45393 8.18199 6.84227 6.79365C8.2306 5.40532 9.92435 4.71157 11.9235 4.7124C13.9227 4.71324 15.616 5.4074 17.0035 6.7949C18.391 8.1824 19.0852 9.87574 19.086 11.8749C19.086 12.7432 18.9323 13.5837 18.6248 14.3962C18.3173 15.2087 17.9131 15.9037 17.4123 16.4812L24.7985 23.8649C24.9152 23.9816 24.9777 24.1253 24.986 24.2962C24.9935 24.4653 24.931 24.6166 24.7985 24.7499C24.6652 24.8832 24.5177 24.9499 24.356 24.9499C24.1943 24.9499 24.0468 24.8832 23.9135 24.7499L16.5285 17.3649C15.9035 17.8974 15.1848 18.3095 14.3723 18.6012C13.5598 18.8928 12.7431 19.0387 11.9223 19.0387M11.9223 17.7887C13.5806 17.7887 14.981 17.2178 16.1235 16.0762C17.2652 14.9345 17.836 13.5341 17.836 11.8749C17.836 10.2157 17.2656 8.81574 16.1248 7.6749C14.9839 6.53407 13.5839 5.96324 11.9248 5.9624C10.2656 5.9624 8.86518 6.53324 7.72352 7.6749C6.58185 8.81657 6.0106 10.2166 6.00977 11.8749C6.00893 13.5332 6.57977 14.9332 7.72227 16.0749C8.86477 17.2166 10.2648 17.7874 11.9223 17.7874" fill="black"/>
</g>
</svg>
